<?xml version="1.0" standalone="no"?>
<!DOCTYPE svg PUBLIC "-//W3C//DTD SVG 20010904//EN"
 "http://www.w3.org/TR/2001/REC-SVG-20010904/DTD/svg10.dtd">
<svg version="1.0" xmlns="http://www.w3.org/2000/svg"
 width="1487.000000pt" height="1487.000000pt" viewBox="0 0 1487.000000 1487.000000"
 preserveAspectRatio="xMidYMid meet">
<metadata>
Created by potrace 1.14, written by Peter Selinger 2001-2017
</metadata>
<g transform="translate(0.000000,1487.000000) scale(0.100000,-0.100000)"
fill="#000000" stroke="none">
<path d="M7233 14050 c-2 -3 -30 -5 -61 -6 -90 -2 -346 -16 -352 -19 -3 -2
-41 -6 -85 -9 -44 -4 -91 -8 -105 -11 -14 -2 -52 -7 -85 -10 -33 -3 -67 -8
-75 -10 -8 -2 -37 -6 -65 -10 -159 -19 -537 -95 -730 -145 -44 -12 -87 -23
-95 -25 -8 -2 -37 -11 -65 -19 -27 -8 -83 -24 -122 -35 -225 -65 -601 -205
-848 -316 -131 -59 -449 -218 -521 -260 -41 -25 -77 -45 -79 -45 -11 0 -281
-167 -419 -259 -142 -93 -447 -314 -501 -362 -11 -10 -49 -42 -85 -71 -36 -29
-70 -57 -76 -63 -7 -5 -36 -30 -65 -55 -324 -276 -762 -747 -1020 -1095 -24
-33 -48 -64 -52 -70 -107 -134 -357 -524 -496 -775 -56 -101 -232 -459 -266
-540 -15 -36 -35 -83 -45 -105 -15 -33 -58 -138 -90 -220 -22 -55 -44 -114
-56 -150 -7 -22 -20 -60 -29 -85 -33 -88 -97 -297 -135 -435 -31 -115 -92
-367 -91 -377 0 -2 -4 -21 -10 -43 -12 -49 -16 -69 -29 -143 -6 -31 -12 -68
-15 -82 -10 -49 -54 -356 -60 -420 -4 -36 -9 -78 -11 -95 -2 -16 -6 -68 -9
-115 -3 -47 -8 -105 -10 -130 -7 -67 -17 -369 -16 -495 0 -227 21 -585 46
-785 2 -19 7 -60 10 -90 3 -30 8 -62 10 -70 2 -8 6 -37 10 -65 3 -27 15 -102
26 -165 12 -63 23 -128 26 -145 7 -45 72 -334 85 -380 6 -22 13 -48 15 -57 13
-70 165 -564 192 -623 5 -11 26 -65 46 -120 177 -474 444 -987 743 -1430 310
-458 635 -836 1080 -1257 l82 -78 1 58 c0 31 1 209 1 395 l0 339 -39 41 c-67
71 -139 150 -174 192 -19 22 -38 45 -44 51 -5 6 -23 28 -40 48 -16 21 -40 50
-53 65 -24 27 -268 350 -293 388 -8 12 -39 59 -70 105 -88 130 -228 357 -252
408 -4 8 -19 35 -33 60 -53 93 -182 349 -238 474 -180 401 -318 817 -412 1240
-31 144 -91 469 -92 506 0 8 -8 67 -16 130 -9 63 -19 151 -22 195 -3 44 -7 91
-10 105 -22 140 -22 701 1 990 12 144 17 202 25 260 5 36 12 88 15 115 7 58
13 99 20 135 2 14 7 43 10 65 3 22 7 51 10 65 6 29 7 34 30 155 9 50 28 137
42 195 14 58 26 112 28 120 28 124 181 607 219 695 8 16 30 71 49 120 19 50
46 115 60 145 13 30 33 75 43 100 55 131 251 509 335 645 10 17 23 39 29 50
61 124 466 688 595 829 6 6 37 43 70 81 33 39 76 88 95 109 64 73 395 400 465
461 38 33 80 71 94 84 31 28 358 289 390 311 12 8 46 32 74 54 29 21 129 89
222 151 506 334 1069 601 1645 778 163 51 502 138 590 153 14 2 45 9 70 14 55
12 73 15 225 40 138 22 169 26 245 34 30 4 73 9 95 11 36 4 66 7 210 20 252
24 733 23 990 0 84 -8 269 -26 295 -29 116 -14 176 -23 335 -51 130 -22 137
-23 285 -56 74 -17 144 -32 156 -33 11 -2 45 -11 75 -20 30 -9 117 -34 194
-57 365 -106 720 -246 1065 -418 175 -88 195 -99 325 -174 337 -194 662 -421
952 -663 129 -109 158 -134 311 -279 169 -159 399 -406 515 -550 9 -11 40 -50
69 -86 283 -347 567 -794 765 -1199 68 -140 81 -166 138 -295 167 -376 346
-960 416 -1355 17 -96 49 -293 54 -340 3 -25 8 -61 11 -80 3 -19 7 -53 9 -75
3 -22 7 -67 10 -100 4 -33 8 -76 11 -95 23 -202 23 -922 -1 -1090 -2 -14 -6
-56 -10 -95 -3 -38 -8 -83 -10 -100 -12 -83 -27 -204 -31 -235 -3 -19 -9 -61
-15 -92 -5 -32 -12 -70 -15 -85 -2 -16 -11 -62 -19 -103 -9 -41 -17 -86 -20
-100 -9 -48 -56 -245 -70 -295 -209 -743 -441 -1269 -823 -1870 -89 -140 -330
-471 -418 -575 -231 -272 -265 -310 -426 -472 -71 -70 -128 -136 -129 -145 -1
-21 -1 -712 0 -731 1 -8 31 13 68 45 37 32 81 69 97 83 239 204 625 607 841
880 33 41 63 77 66 80 15 12 228 306 308 424 376 558 691 1223 890 1878 41
135 91 322 116 428 37 157 96 461 110 564 3 23 10 73 15 111 14 105 23 185 35
310 16 163 20 288 20 645 0 228 -4 456 -8 506 -10 125 -16 191 -22 244 -3 25
-8 65 -10 90 -5 43 -8 63 -21 163 -8 66 -45 280 -48 286 -2 3 -7 27 -10 52
-13 97 -106 490 -142 600 -8 25 -16 56 -19 68 -17 91 -207 617 -277 771 -11
25 -38 85 -60 135 -302 686 -802 1426 -1333 1974 -183 189 -361 359 -465 446
-25 21 -47 40 -50 44 -3 4 -52 45 -110 92 -58 46 -107 87 -110 90 -3 3 -59 46
-125 95 -515 385 -940 626 -1600 909 -162 69 -655 236 -765 259 -14 3 -59 15
-100 26 -41 12 -82 23 -91 25 -8 2 -44 10 -80 19 -163 40 -445 93 -589 111
-30 4 -64 9 -75 11 -28 6 -171 23 -230 28 -27 3 -84 8 -125 11 -41 4 -95 8
-120 10 -123 11 -679 23 -687 15z"/>
<path d="M10849 11435 c0 -55 -2 -140 -4 -190 -2 -49 -6 -170 -9 -269 -6 -173
-10 -201 -24 -192 -4 2 -45 7 -92 11 -47 3 -101 8 -120 10 -50 6 -211 17 -430
30 -346 21 -969 21 -1265 0 -22 -1 -91 -6 -153 -9 -62 -4 -120 -9 -130 -11
-10 -2 -52 -6 -93 -10 -113 -10 -220 -22 -269 -30 -14 -2 -49 -7 -79 -10 -30
-4 -62 -8 -72 -10 -9 -2 -39 -6 -66 -10 -60 -8 -91 -13 -123 -20 -13 -2 -42
-7 -65 -10 -22 -3 -47 -8 -55 -10 -8 -2 -28 -7 -45 -9 -16 -3 -73 -15 -125
-26 -52 -12 -104 -23 -115 -25 -65 -14 -313 -78 -385 -100 -47 -14 -95 -28
-107 -30 -46 -10 -434 -145 -498 -174 -11 -5 -45 -19 -75 -31 -30 -12 -73 -30
-95 -40 -22 -10 -65 -28 -95 -41 -94 -39 -409 -202 -530 -274 -112 -66 -330
-204 -340 -215 -3 -3 -45 -34 -95 -70 -136 -97 -236 -177 -399 -319 -53 -46
-363 -356 -428 -427 -68 -76 -257 -316 -344 -439 -139 -195 -300 -460 -393
-646 -18 -35 -36 -71 -41 -79 -8 -14 -77 -161 -113 -240 -9 -19 -28 -64 -42
-100 -15 -36 -33 -78 -40 -95 -83 -185 -240 -699 -290 -942 -2 -10 -12 -63
-24 -118 -11 -55 -23 -116 -26 -135 -3 -19 -10 -57 -15 -85 -16 -85 -45 -319
-56 -450 -9 -119 -10 -145 -4 -145 3 0 32 37 64 83 117 162 330 438 422 547
12 14 63 75 115 135 51 61 95 112 98 115 4 3 24 25 45 50 384 441 1014 1029
1531 1429 66 51 129 100 140 109 128 106 730 521 965 666 52 33 125 78 162
102 37 24 69 44 72 44 2 0 40 22 83 48 67 41 298 174 443 255 205 114 951 487
974 487 2 0 46 20 98 43 51 24 176 79 278 122 102 42 199 83 215 90 480 206
1340 490 1888 624 l117 28 1 -26 c0 -14 2 -35 4 -46 2 -11 7 -58 10 -105 3
-47 8 -98 10 -115 2 -16 7 -66 10 -110 4 -44 8 -93 10 -110 2 -16 7 -73 10
-125 4 -52 10 -114 14 -138 l6 -43 235 316 c129 174 243 326 252 338 47 59
271 364 275 374 4 10 -22 45 -77 102 -9 9 -43 48 -75 86 -33 39 -65 75 -71 80
-5 6 -39 44 -75 85 -35 41 -72 84 -82 95 -11 11 -38 42 -60 69 -23 27 -51 58
-62 70 -11 12 -47 53 -80 91 -99 115 -108 126 -152 174 l-43 46 -1 -100z"/>
<path d="M9750 8976 c-3 -2 -27 -7 -55 -10 -206 -27 -498 -135 -671 -249 -255
-168 -422 -424 -451 -692 -4 -38 -8 -6700 -4 -6837 1 -17 6 -26 14 -23 6 2 30
6 52 9 175 24 406 95 571 176 239 118 402 273 499 475 87 179 79 -181 79 3705
1 3102 -1 3445 -14 3448 -9 1 -18 1 -20 -2z"/>
<path d="M11540 8328 c-19 -4 -48 -9 -65 -12 -56 -10 -182 -45 -271 -77 -322
-113 -567 -306 -683 -538 -43 -84 -77 -180 -86 -239 -3 -21 -8 -49 -11 -62 -7
-28 -13 -6208 -6 -6227 2 -7 7 -11 11 -9 3 2 28 7 55 10 27 4 52 9 55 11 3 1
24 6 46 9 189 30 470 141 636 252 71 48 191 158 243 224 56 71 124 213 141
293 2 10 6 26 9 35 3 9 8 33 12 52 7 37 13 6256 6 6278 -4 13 -33 13 -92 0z"/>
<path d="M7895 6899 c-22 -4 -58 -11 -80 -14 -164 -26 -428 -122 -580 -212
-274 -162 -452 -419 -493 -711 -11 -80 -8 -4797 3 -4795 6 0 35 4 65 8 30 4
58 9 61 11 4 2 24 6 45 10 22 3 91 21 154 39 517 149 839 460 876 848 11 111
9 4821 -2 4823 -5 1 -27 -2 -49 -7z"/>
<path d="M6089 5526 c-2 -2 -24 -7 -49 -10 -25 -3 -90 -17 -145 -30 -441 -108
-753 -318 -900 -607 -37 -72 -72 -169 -80 -221 -3 -18 -9 -57 -14 -85 -12 -78
-8 -3408 4 -3407 6 1 32 5 59 9 251 33 552 145 744 278 136 93 281 258 322
367 7 19 17 40 21 45 14 20 48 162 55 230 11 111 8 3415 -3 3426 -5 5 -11 7
-14 5z"/>
<path d="M4195 3663 c-155 -30 -188 -38 -309 -77 -275 -91 -506 -243 -643
-426 -65 -88 -126 -216 -155 -325 l-23 -90 0 -790 c0 -521 3 -789 10 -788 6 1
30 4 55 8 351 52 675 195 878 390 120 114 191 230 244 400 22 69 22 78 25 887
2 449 0 818 -4 821 -4 2 -39 -2 -78 -10z"/>
</g>
</svg>
